<?xml version="1.0" encoding="utf-8"?>
<!-- Generator: Adobe Illustrator 21.0.2, SVG Export Plug-In . SVG Version: 6.00 Build 0)  -->
<svg version="1.1" xmlns="http://www.w3.org/2000/svg" xmlns:xlink="http://www.w3.org/1999/xlink" x="0px" y="0px"
	 viewBox="0 0 720 302" enable-background="new 0 0 720 302" xml:space="preserve">
<path fill="#FFFFFF" d="M559,12.6c5-0.5,17.1-1.7,29.7-2.7c7.3-0.6,14.2-1,18.8-1.2v6.9c-3.7,0-9.7,0.1-13.2,1
	c-9.1,2.7-15.1,12-15.1,20.1c0,12.4,11.5,16.5,22.8,17l-2.5,7.4c-13.3-0.7-27.4-7.9-27.4-22.9c0-10.2,6-18.2,11.5-21.8
	c-5.9,0.7-22.7,2.3-30.3,3.9l-0.8-7.5C555.3,12.9,557.7,12.8,559,12.6z M603.5,32.4l-4.4,1.9c-1.7-3.5-3.3-6.6-5.5-9.6l4.1-1.8
	C599.5,25.3,602.1,29.5,603.5,32.4z M611.4,29.3l-4.3,2c-1.8-3.5-3.6-6.5-5.7-9.5l4.1-1.9C607.2,22.2,609.8,26.4,611.4,29.3z"/>
<g>
	<path fill="#FFFFFF" d="M390.5,117.3c-0.5,1.2-1.1,4-1.4,5.3c-1.2,5.5-3.3,19.4-3.3,26.6c0,2.4,0.1,4.7,0.5,7.2
		c1-2.8,2.3-6.1,3.4-8.6l3.5,2.8c-1.8,5.1-4.1,12.1-4.8,15.6c-0.2,1-0.4,2.3-0.4,3.1c0.1,0.7,0.1,1.7,0.2,2.6l-6.2,0.5
		c-1.4-4.8-2.6-12.4-2.6-21.6c0-10.2,2.1-22.8,3-28.3c0.3-1.7,0.5-3.9,0.6-5.6L390.5,117.3z M433.7,167.5c-3.2-3-6.3-5.5-9.5-7.5
		v0.1c0,6.3-3,11.7-12.4,11.7c-9.3,0-14.7-3.8-14.7-10.4c0-6.2,5.5-10.9,14.5-10.9c1.9,0,3.7,0.1,5.5,0.4
		c-0.3-4.7-0.6-10.4-0.7-15.8c-1.9,0.1-3.8,0.1-5.7,0.1c-3.9,0-7.6-0.2-11.6-0.4v-6.6c3.9,0.4,7.7,0.6,11.7,0.6
		c1.9,0,3.7-0.1,5.6-0.1V121c0-1.2-0.2-3-0.4-4.3h7.8c-0.2,1.3-0.3,2.8-0.4,4.1c-0.1,1.7-0.1,4.6-0.2,7.6c4-0.3,7.9-0.8,11.3-1.5
		v6.7c-3.5,0.6-7.4,1-11.3,1.2c0.1,6.8,0.6,12.9,0.8,18c5.7,2.3,10,5.8,13.3,8.9L433.7,167.5z M417.4,156.9
		c-2.1-0.6-4.1-0.9-6.3-0.9c-4.5,0-7.6,1.9-7.6,4.8c0,3.1,3,4.7,7.3,4.7c5.1,0,6.6-2.6,6.6-6.8V156.9z"/>
	<path fill="#FFFFFF" d="M460,116.9c-0.3,2.5-0.6,5.3-0.8,7.8c-0.3,7.5-0.8,22.3-0.8,31.7c0,7.3,4.6,9.7,10.4,9.7
		c12,0,19.1-6.8,24-14l4.8,6c-4.5,6.5-13.7,15.3-28.9,15.3c-10.4,0-17.4-4.5-17.4-15.8c0-9.6,0.7-26.2,0.7-32.8
		c0-2.8-0.2-5.6-0.7-7.9L460,116.9z M484.9,132.6l-5,2.2c-1.9-3.9-4-7.8-6.4-11.1l4.8-2.1C480.2,124.3,483.4,129.3,484.9,132.6z
		 M494.2,128.7l-4.8,2.4c-2-3.9-4.2-7.7-6.6-10.9l4.8-2.2C489.3,120.5,492.6,125.5,494.2,128.7z"/>
	<path fill="#FFFFFF" d="M549,116.2c-0.6,1.8-1,4.5-1.4,6c-0.3,1.2-0.6,2.4-0.9,3.7c10.9,2.1,18.2,10.6,18.2,22.5
		c0,14-10,22.3-24.4,24.3l-4.1-6.2c14.5-1.2,21.5-8.8,21.5-18.5c0-8.2-4.8-14.4-12.7-16.1c-2.5,8.3-5.7,16.7-9.7,22.5
		c1.2,1.7,2.6,3.2,3.9,4.5l-5.4,4.4c-1-1.1-1.9-2.2-2.8-3.3c-4.4,5-8.4,7.9-13.4,7.9c-5.4,0-10.2-4.6-10.2-12.9
		c0-7.7,4.1-16,10.3-21.2c-0.7-2-1.3-4-1.9-5.9c-0.7-2.3-1.5-4.5-2.4-6.6l7.1-2.3c0.4,2.1,1,4.4,1.5,6.3c0.4,1.5,0.9,3,1.4,4.7
		c5.5-3,10.9-4.3,16.7-4.5c0.3-1.5,0.6-2.8,0.8-4.1c0.3-1.7,0.5-4.1,0.4-5.7L549,116.2z M526.5,153.2c-2.1-3.2-4.3-8.1-6.4-13.3
		c-3.9,4.1-6.2,9.7-6.2,14.5c0,4,1.7,6.5,4.6,6.5c2.9,0,6-2.8,8.8-6.4L526.5,153.2z M531.4,148.5c2.8-4.7,5.3-11,7.1-17.1
		c-4.8,0.3-9.1,1.9-12.9,4.4c1.7,4.6,3.5,9,5.2,11.7L531.4,148.5z"/>
	<path fill="#FFFFFF" d="M618.7,122.5c-1.4,0.9-2.9,1.9-4.2,2.8c-3.5,2.5-11,9.2-15.7,13.2c2.8-0.9,5-1.2,7.7-1.2
		c11.5,0,19.9,6.8,19.9,16.5c0,11.1-9.5,18.8-25.2,18.8c-9.1,0-14.5-4.4-14.5-10.4c0-5,4.6-9.7,11.3-9.7c8.3,0,13.1,5.3,14.2,11.6
		c4.6-2.1,7.3-5.7,7.3-10.4c0-6.4-6.2-10.6-14.4-10.6c-10.4,0-17.6,5.5-25.3,14l-5-5c5.2-4.4,13.5-11.6,17.5-15
		c3.7-3.2,11-9.5,14.4-12.6c-3.5,0.1-14,0.7-17.6,0.9c-1.7,0.1-3.5,0.2-5,0.4l-0.2-7.1c1.7,0.2,3.8,0.3,5.5,0.3
		c3.5,0,17.8-0.4,21.5-0.8c2.4-0.3,3.6-0.4,4.4-0.7L618.7,122.5z M605.9,165.9c-0.6-4.8-3.5-8.1-7.9-8.1c-2.9,0-4.9,1.7-4.9,3.8
		c0,3,3,4.6,7.5,4.6C602.4,166.3,604.2,166.1,605.9,165.9z"/>
</g>
<g>
	<path fill="#FFFFFF" d="M438.4,278.3c0,3.7-0.8,5.6-3.1,6.6s-5.9,1.2-11.7,1.2c-0.3-1.7-1.3-4.6-2.2-6.3c3.9,0.2,7.9,0.1,9.1,0.1
		c1.2-0.1,1.6-0.5,1.6-1.7V232h-44.6v54.1h-6.2v-60.2h57.1V278.3z M427.1,243.7h-34.6v-5.5h34.6V243.7z M401.9,272.3v4.8h-5.9v-27.1
		h27.7v22.3H401.9z M401.9,255.5v11.5h15.8v-11.5H401.9z"/>
	<path fill="#FFFFFF" d="M481.4,227.7c0.6,9.1,4.3,40.3,30,52.1c-2,1.6-3.9,3.8-5,5.6c-16.6-8-24.3-24.1-27.8-37.5
		c-3.3,13.3-10.5,28.4-26.6,37.5c-1.2-1.6-3.2-3.7-5.3-5c27.5-14.7,27.2-47,27.7-55.9h7.3L481.4,227.7z"/>
	<path fill="#FFFFFF" d="M541,239.3h-24.7v-5.2H541V239.3z M539.3,282.4h-14.7v3.1h-5.5V262h20.1V282.4z M539.2,248.4h-19.9v-5h19.9
		V248.4z M519.3,252.7h19.9v5h-19.9V252.7z M538.8,230h-19.3v-5h19.3V230z M524.6,267.3v10h9.1v-10H524.6z M539.6,279
		c2.9-3.5,4.4-9.4,5-15.1l5.2,1.4c-0.7,6.2-2.1,13-5.5,17.4L539.6,279z M557.3,238.1h-14.6v-5.9h14.6v-9.5h6.4v9.5h15v5.9h-15v9.2
		H578v5.9h-21.4c4.3,2.2,9.5,5.6,12.1,8.3l-4.3,4.4c-2.4-2.7-7.8-6.5-12.2-8.9l3.7-3.7h-11.8v-5.9h13.1V238.1z M564.2,280.3
		c1.5,0,1.9-1,2.1-7.3c1.2,1,3.7,1.9,5.4,2.3c-0.6,8.3-2.1,10.4-6.8,10.4h-6.2c-5.7,0-7.1-1.7-7.1-7.5V262h6.1v16.2
		c0,1.7,0.2,2,1.9,2H564.2z M573,262.8c3.6,5.1,6.6,12,7.6,16.7l-5.5,2.3c-0.9-4.6-3.8-11.7-7.3-16.9L573,262.8z"/>
	<path fill="#FFFFFF" d="M608.1,244.3H624v5.9h-15.9v6.2H622v18.2c0,2.6-0.4,4.3-2.2,5.3s-4.4,1-8,1c-0.1-1.6-0.9-3.9-1.7-5.5
		c2.5,0.1,4.6,0.1,5.3,0c0.7,0,0.9-0.2,0.9-0.9V262h-8v23.9H602V262h-7.5v18.5h-5.7v-24.2H602v-6.2h-16.2v-5.9h4.8
		c-1.3-0.8-3.9-1.7-5.4-2.2c3-4.6,5.3-11.4,6.6-18l6,1.2c-0.6,2.3-1.2,4.6-1.8,6.8h6V223h6.1v9.2h13.2v5.8h-13.2V244.3z M602,244.3
		V238H594c-0.9,2.3-1.9,4.6-3,6.3H602z M634.2,266.9h-5.9v-38.2h5.9V266.9z M646.6,223.5v54.3c0,3.9-0.8,5.7-3.1,6.8
		c-2.2,1.1-6.1,1.2-11.3,1.2c-0.3-1.7-1.2-4.7-2.1-6.6c3.9,0.1,7.6,0.1,8.8,0.1c1.1,0,1.5-0.3,1.5-1.5v-54.3H646.6z"/>
	<path fill="#FFFFFF" d="M676.8,224.8c-1.9,4.8-4.2,9.8-6.8,14.4v46.7h-6.5v-36.5c-1.8,2.5-3.7,4.8-5.7,6.8
		c-0.6-1.6-2.5-5.2-3.6-6.6c6.6-6.5,12.7-16.6,16.5-26.7L676.8,224.8z M697.6,240v8.8h18.8v5.9h-18.8v9.2h19.8v6h-19.8v16h-6.6V240
		h-3.9c-2.9,5.4-6.1,10.2-9.4,13.9c-1-1.1-3.5-3.4-5-4.4c6.1-6.4,11.6-16.3,14.9-26.3l6.2,1.7c-1.1,3-2.3,6-3.6,8.9h27.8v6.2H697.6z
		"/>
</g>
<rect x="-0.3" y="177.4" fill="#FFFFFF" width="630.5" height="11.5"/>
<rect x="-0.3" y="290.5" fill="#FFFFFF" width="720.5" height="11.5"/>
<g>
	<path fill="#FFF23F" d="M376.9,33.7c0-21.1,13.6-33.4,29.7-33.4c8.1,0,14.6,3.9,18.7,8.2l-6.7,8.1c-3.2-3.1-6.9-5.4-11.8-5.4
		c-9.7,0-16.9,8.3-16.9,22c0,13.9,6.6,22.3,16.7,22.3c5.4,0,9.8-2.6,13.2-6.3l6.7,7.9c-5.3,6.1-12.1,9.4-20.4,9.4
		C390,66.6,376.9,55,376.9,33.7z"/>
	<path fill="#FFF23F" d="M439.3,57.3l7.3-8.8c4.6,4.2,10.6,7.1,16.2,7.1c6.7,0,10.2-2.9,10.2-7.3c0-4.8-3.9-6.2-9.6-8.6l-8.6-3.6
		c-6.5-2.7-13-7.9-13-17.2c0-10.5,9.2-18.5,22.1-18.5c7.4,0,14.9,2.9,20,8.2l-6.5,8c-4.1-3.4-8.3-5.3-13.6-5.3
		c-5.6,0-9.2,2.5-9.2,6.7c0,4.6,4.6,6.2,10,8.4l8.4,3.5c7.8,3.2,12.9,8.1,12.9,17.4c0,10.5-8.7,19.4-23.5,19.4
		C454,66.6,445.5,63.3,439.3,57.3z"/>
	<path fill="#FFF23F" d="M499.8,57.3l7.3-8.8c4.6,4.2,10.6,7.1,16.2,7.1c6.7,0,10.2-2.9,10.2-7.3c0-4.8-3.9-6.2-9.6-8.6l-8.6-3.6
		c-6.5-2.7-13-7.9-13-17.2c0-10.5,9.2-18.5,22.1-18.5c7.4,0,14.9,2.9,20,8.2l-6.5,8c-4.1-3.4-8.3-5.3-13.6-5.3
		c-5.6,0-9.2,2.5-9.2,6.7c0,4.6,4.6,6.2,10,8.4l8.4,3.5c7.8,3.2,12.9,8.1,12.9,17.4c0,10.5-8.7,19.4-23.5,19.4
		C514.6,66.6,506.1,63.3,499.8,57.3z"/>
</g>
<path fill="#FFFFFF" d="M541,64.2c-5,3.8-11.7,5.8-18.4,5.8c-7,0-13.9-2-19.8-5.8h-22.4c-5,3.8-11.7,5.8-18.4,5.8
	c-7,0-13.9-2-19.8-5.8h-18.8c-5.1,3.8-11,5.8-17.8,5.8c-6.6,0-13.2-1.9-18.8-5.8H-0.3v11.5h613.4V64.2H541z"/>
<g>
</g>
<g>
</g>
<g>
</g>
<g>
</g>
<g>
</g>
<g>
</g>
<g>
</g>
<g>
</g>
<g>
</g>
<g>
</g>
<g>
</g>
<g>
</g>
<g>
</g>
<g>
</g>
<g>
</g>
</svg>
